<?xml version="1.0" encoding="UTF-8"?>
<svg id="Layer_2" data-name="Layer 2" xmlns="http://www.w3.org/2000/svg" viewBox="0 0 562.61 373.3">
  <defs>
    <style>
      .cls-1 {
        fill: #fff;
      }
    </style>
  </defs>
  <g id="logos">
    <g>
      <g>
        <path class="cls-1" d="M0,262.87v-3.46h103.32v-26.15H30.91c-17.08,0-30.69-13.18-30.91-29.4v-31.77c0-16.64,13.62-30.26,30.26-30.26h82.57c16.64,0,30.26,13.62,30.26,30.26v3.46H39.55v26.15h73.27c16.43,0,29.83,13.18,30.26,29.4v31.77c0,16.64-13.62,30.26-30.26,30.26H30.26c-16.64,0-30.26-13.62-30.26-30.26Z"/>
        <path class="cls-1" d="M174.42,141.83h112.83c16.64,0,30.26,13.62,30.26,30.26v44.31c0,16.64-13.62,30.26-30.26,30.26h-73.27v46.47h-39.55v-151.3ZM277.74,211.64v-34.58h-63.76v34.58h63.76Z"/>
        <path class="cls-1" d="M344.53,141.83h40.42v151.3h-40.42v-151.3Z"/>
        <path class="cls-1" d="M419.52,141.83h112.83c16.64,0,30.26,13.62,30.26,30.26v121.04h-39.77v-115.2h-63.76v115.2h-39.55v-151.3Z"/>
      </g>
      <g>
        <path class="cls-1" d="M189.22,333.13h24.93c4.12,0,6.96,2.84,6.96,6.96v9.91c0,4.06-2.84,6.96-6.96,6.96h-20.87v16.35h-4.06v-40.17ZM217.04,353.24v-16.4h-23.77v16.4h23.77Z"/>
        <path class="cls-1" d="M230.38,340.08c0-4.12,2.9-6.96,6.96-6.96h17.97c4.12,0,6.96,2.84,6.96,6.96v33.22h-4.06v-14.38h-23.77v14.38h-4.06v-33.22ZM258.2,355.21v-18.38h-23.77v18.38h23.77Z"/>
        <path class="cls-1" d="M274.26,333.13h24.93c4.12,0,6.96,2.84,6.96,6.96v26.26c0,4.06-2.84,6.96-6.96,6.96h-24.93v-40.17ZM302.09,369.59v-32.75h-23.77v32.75h23.77Z"/>
        <path class="cls-1" d="M317.46,333.13h27.48v3.71h-23.42v14.49h23.19v3.71h-23.19v14.55h23.42v3.71h-27.48v-40.17Z"/>
        <path class="cls-1" d="M355.31,333.13h4.06v36.46h20.98v3.71h-25.04v-40.17Z"/>
      </g>
      <g id="SP">
        <path class="cls-1" d="M371.78,0h-169.25c-12.11,0-21.93,9.82-21.93,21.93v29.93c0,12.11,9.82,21.93,21.93,21.93h51.86v-5.16c0-7.12-5.78-12.9-12.9-12.9h-38.96c-2.14,0-3.87-1.73-3.87-3.87v-29.93c0-2.14,1.73-3.87,3.87-3.87h169.25c2.14,0,3.87,1.73,3.87,3.87v29.93c0,2.14-1.73,3.87-3.87,3.87h-38.96c-7.12,0-12.9,5.78-12.9,12.9v5.16h51.86c12.11,0,21.93-9.82,21.93-21.93v-29.93c0-12.11-9.82-21.93-21.93-21.93Z"/>
        <path class="cls-1" d="M260.32,101.66h-79.72v-18.06h77.14c3.56,0,6.45-2.89,6.45-6.45v-24.77c0-3.56-2.89-6.45-6.45-6.45h-49.28v-5.16c0-7.12,5.78-12.9,12.9-12.9h38.96c12.11,0,21.93,9.82,21.93,21.93v29.93c0,12.11-9.82,21.93-21.93,21.93Z"/>
        <path class="cls-1" d="M310.12,101.66h-18.06v-51.86c0-12.11,9.82-21.93,21.93-21.93h38.96c7.12,0,12.9,5.78,12.9,12.9v5.16h-49.28c-3.56,0-6.45,2.89-6.45,6.45v49.28Z"/>
      </g>
    </g>
  </g>
</svg>