<?xml version="1.0" encoding="UTF-8"?>
<svg id="Layer_2" data-name="Layer 2" xmlns="http://www.w3.org/2000/svg" viewBox="0 0 571.4 272.55">
  <defs>
    <style>
      .cls-1 {
        fill: #fff;
      }
    </style>
  </defs>
  <g id="logos">
    <g id="SP">
      <path class="cls-1" d="M512.6,0H58.8C26.33,0,0,26.33,0,58.8v80.24c0,32.47,26.33,58.8,58.8,58.8h139.04v-13.84c0-19.1-15.49-34.59-34.59-34.59H58.8c-5.73,0-10.38-4.65-10.38-10.38V58.8c0-5.73,4.65-10.38,10.38-10.38h453.8c5.73,0,10.38,4.65,10.38,10.38v80.24c0,5.73-4.65,10.38-10.38,10.38h-104.46c-19.1,0-34.59,15.49-34.59,34.59v13.84h139.04c32.47,0,58.8-26.33,58.8-58.8V58.8c0-32.47-26.33-58.8-58.8-58.8Z"/>
      <path class="cls-1" d="M213.76,272.55H0v-48.42h206.84c9.55,0,17.29-7.74,17.29-17.29v-66.41c0-9.55-7.74-17.29-17.29-17.29H74.71v-13.84c0-19.1,15.49-34.59,34.59-34.59h104.46c32.47,0,58.8,26.33,58.8,58.8v80.24c0,32.47-26.33,58.8-58.8,58.8Z"/>
      <path class="cls-1" d="M347.27,272.55h-48.42v-139.04c0-32.47,26.33-58.8,58.8-58.8h104.46c19.1,0,34.59,15.49,34.59,34.59v13.84h-132.13c-9.55,0-17.29,7.74-17.29,17.29v132.13Z"/>
    </g>
  </g>
</svg>