<?xml version="1.0" encoding="UTF-8"?>
<svg id="Layer_2" data-name="Layer 2" xmlns="http://www.w3.org/2000/svg" viewBox="0 0 857.1 410.88">
  <defs>
    <style>
      .cls-1 {
        fill: #0c2028;
      }

      .cls-2 {
        fill: none;
      }

      .cls-3 {
        opacity: .5;
      }
    </style>
  </defs>
  <g id="logos">
    <g>
      <g id="SP">
        <g>
          <path class="cls-1" d="M655.45,69.85H201.65c-32.47,0-58.8,26.33-58.8,58.8v80.24c0,32.47,26.33,58.8,58.8,58.8h139.04v-13.84c0-19.1-15.49-34.59-34.59-34.59h-104.46c-5.73,0-10.38-4.65-10.38-10.38v-80.24c0-5.73,4.65-10.38,10.38-10.38h453.8c5.73,0,10.38,4.65,10.38,10.38v80.24c0,5.73-4.65,10.38-10.38,10.38h-104.46c-19.1,0-34.59,15.49-34.59,34.59v13.84h139.04c32.47,0,58.8-26.33,58.8-58.8v-80.24c0-32.47-26.33-58.8-58.8-58.8Z"/>
          <path class="cls-1" d="M356.6,342.4h-213.75v-48.42h206.84c9.55,0,17.29-7.74,17.29-17.29v-66.41c0-9.55-7.74-17.29-17.29-17.29h-132.13v-13.84c0-19.1,15.49-34.59,34.59-34.59h104.46c32.47,0,58.8,26.33,58.8,58.8v80.24c0,32.47-26.33,58.8-58.8,58.8Z"/>
          <path class="cls-1" d="M490.11,342.4h-48.42v-139.04c0-32.47,26.33-58.8,58.8-58.8h104.46c19.1,0,34.59,15.49,34.59,34.59v13.84h-132.13c-9.55,0-17.29,7.74-17.29,17.29v132.13Z"/>
        </g>
      </g>
      <g class="cls-3">
        <rect class="cls-2" x="142.85" y="68.48" width="142.85" height="68.48"/>
        <rect class="cls-2" x="285.7" y="68.48" width="142.85" height="68.48"/>
        <rect class="cls-2" x="428.55" y="68.48" width="142.85" height="68.48"/>
        <rect class="cls-2" x="571.4" y="68.48" width="142.85" height="68.48"/>
        <rect class="cls-2" x="142.85" y="136.96" width="142.85" height="68.48"/>
        <rect class="cls-2" x="285.7" y="136.96" width="142.85" height="68.48"/>
        <rect class="cls-2" x="428.55" y="136.96" width="142.85" height="68.48"/>
        <rect class="cls-2" x="571.4" y="136.96" width="142.85" height="68.48"/>
        <rect class="cls-2" x="142.85" y="205.44" width="142.85" height="68.48"/>
        <rect class="cls-2" x="285.7" y="205.44" width="142.85" height="68.48"/>
        <rect class="cls-2" x="428.55" y="205.44" width="142.85" height="68.48"/>
        <rect class="cls-2" x="571.4" y="205.44" width="142.85" height="68.48"/>
        <rect class="cls-2" x="714.25" y="205.44" width="142.85" height="68.48"/>
        <rect class="cls-2" y="205.44" width="142.85" height="68.48"/>
        <rect class="cls-2" x="357.12" width="142.85" height="68.48"/>
        <rect class="cls-2" x="0" width="857.1" height="410.88"/>
        <rect class="cls-2" x="357.12" y="342.4" width="142.85" height="68.48"/>
        <rect class="cls-2" x="142.85" y="273.92" width="142.85" height="68.48"/>
        <rect class="cls-2" x="285.7" y="273.92" width="142.85" height="68.48"/>
        <rect class="cls-2" x="428.55" y="273.92" width="142.85" height="68.48"/>
        <rect class="cls-2" x="571.4" y="273.92" width="142.85" height="68.48"/>
      </g>
    </g>
  </g>
</svg>