<?xml version="1.0" encoding="UTF-8"?>
<svg id="Layer_2" data-name="Layer 2" xmlns="http://www.w3.org/2000/svg" viewBox="0 0 836.66 603.1">
  <defs>
    <style>
      .cls-1 {
        opacity: .5;
      }

      .cls-1, .cls-2 {
        fill: none;
      }

      .cls-2 {
        opacity: .1;
      }
    </style>
  </defs>
  <g id="logos">
    <g>
      <g>
        <g>
          <path d="M515.76,170.85h30.47v170.85h-30.47v-170.85Z"/>
          <path d="M570.95,170.85h98.69c18.87,0,34.17,15.3,34.17,34.17v136.68h-30.38v-140.39h-72v140.39h-30.47v-170.85Z"/>
        </g>
        <g>
          <path d="M132.86,386.88h28.15c4.65,0,7.86,3.21,7.86,7.85v11.19c0,4.58-3.21,7.85-7.86,7.85h-23.57v18.46h-4.58v-45.36ZM164.28,409.59v-18.52h-26.84v18.52h26.84Z"/>
          <path d="M179.34,394.73c0-4.65,3.27-7.85,7.86-7.85h20.29c4.65,0,7.86,3.21,7.86,7.85v37.51h-4.58v-16.23h-26.84v16.23h-4.58v-37.51ZM210.76,411.82v-20.75h-26.84v20.75h26.84Z"/>
          <path d="M228.9,386.88h28.15c4.65,0,7.86,3.21,7.86,7.85v29.66c0,4.58-3.21,7.85-7.86,7.85h-28.15v-45.36ZM260.32,428.05v-36.98h-26.84v36.98h26.84Z"/>
          <path d="M277.67,386.88h31.03v4.19h-26.45v16.36h26.18v4.19h-26.18v16.43h26.45v4.19h-31.03v-45.36Z"/>
          <path d="M320.42,386.88h4.58v41.17h23.7v4.19h-28.28v-45.36Z"/>
        </g>
        <g id="SP">
          <path d="M454.18,170.85H169.72c-20.36,0-36.86,16.5-36.86,36.86v50.3c0,20.36,16.5,36.86,36.86,36.86h87.16v-8.67c0-11.97-9.71-21.68-21.68-21.68h-65.48c-3.59,0-6.5-2.91-6.5-6.5v-50.3c0-3.59,2.91-6.5,6.5-6.5h284.47c3.59,0,6.5,2.91,6.5,6.5v50.3c0,3.59-2.91,6.5-6.5,6.5h-65.48c-11.97,0-21.68,9.71-21.68,21.68v8.67h87.16c20.36,0,36.86-16.5,36.86-36.86v-50.3c0-20.36-16.5-36.86-36.86-36.86Z"/>
          <path d="M266.85,341.71h-134v-30.35h129.66c5.99,0,10.84-4.85,10.84-10.84v-41.63c0-5.99-4.85-10.84-10.84-10.84h-82.83v-8.67c0-11.97,9.71-21.68,21.68-21.68h65.48c20.36,0,36.86,16.5,36.86,36.86v50.3c0,20.36-16.5,36.86-36.86,36.86Z"/>
          <path d="M350.54,341.71h-30.35v-87.16c0-20.36,16.5-36.86,36.86-36.86h65.48c11.97,0,21.68,9.71,21.68,21.68v8.67h-82.83c-5.99,0-10.84,4.85-10.84,10.84v82.83Z"/>
        </g>
      </g>
      <rect class="cls-1" x="132.86" y="170.85" width="570.95" height="261.39"/>
      <rect class="cls-1" width="836.66" height="603.1"/>
      <path class="cls-2" d="M703.8,170.85h98.69c18.87,0,34.17,15.3,34.17,34.17v136.68h-30.38v-140.39h-72v140.39h-30.47v-170.85Z"/>
      <path class="cls-2" d="M368.92,0h98.69c18.87,0,34.17,15.3,34.17,34.17v136.68h-30.38V30.47h-72v140.39h-30.47V0Z"/>
      <path class="cls-2" d="M0,194.27h98.69c18.87,0,34.17,15.3,34.17,34.17v136.68h-30.38v-140.39H30.47v140.39H0v-170.85Z"/>
      <path class="cls-2" d="M368.92,432.24h98.69c18.87,0,34.17,15.3,34.17,34.17v136.68h-30.38v-140.39h-72v140.39h-30.47v-170.85Z"/>
    </g>
  </g>
</svg>